<?xml version="1.0" encoding="UTF-8" standalone="no"?>
<!-- Created with Inkscape (http://www.inkscape.org/) -->

<svg
   width="255.99998"
   height="256"
   viewBox="0 0 67.733329 67.733334"
   version="1.1"
   id="svg5"
   xmlns="http://www.w3.org/2000/svg"
   xmlns:svg="http://www.w3.org/2000/svg">
  <defs
     id="defs2">
    <linearGradient
       id="linearGradient3039">
      <stop
         style="stop-color:#c79d00;stop-opacity:1;"
         offset="0"
         id="stop3037" />
    </linearGradient>
    <rect
       x="63.25"
       y="66.25"
       width="129.5"
       height="123"
       id="rect2861" />
  </defs>
  <g
     id="layer1"
     style="display:inline">
    <rect
       style="font-variation-settings:'wght' 700;display:none;opacity:1;fill:#35394f;fill-opacity:1;stroke:none;stroke-width:0.00988007;stroke-dasharray:none;stroke-dashoffset:0;stroke-opacity:1"
       id="rect13121"
       width="104.30193"
       height="89.054207"
       x="-14.218739"
       y="-5.6126599" />
  </g>
  <g
     id="layer2"
     style="display:inline">
    <g
       id="g9762"
       style="display:inline">
      <path
         id="use10584"
         style="color:#000000;display:inline;fill:#c49454;fill-opacity:1;stroke-width:0.480831;-inkscape-stroke:none"
         d="m 24.179919,50.151978 v 1.073836 h 0.21084 v -1.073836 z m 0.764812,0 v 1.840197 h 0.21084 v -1.840197 z m 0.764294,0 v 2.582271 h 0.21084 v -2.582271 z m 0.764295,0 v 3.348116 h 0.210839 v -3.348116 z m 0.764294,0 v 4.143416 h 0.211357 v -4.143416 z m 0.764811,0 v 4.868436 h 0.21084 v -4.868436 z m 0.764295,0 v 5.657535 h 0.210839 v -5.657535 z m 0.764294,0 v 6.429581 h 0.21084 v -6.429581 z m 0.764811,0 v 7.206795 h 0.21084 v -7.206795 z m 0.764295,0 v 7.926131 h 0.21084 v -7.926131 z m 0.764294,0 v 8.668721 h 0.21084 v -8.668721 z m 0.764295,0 v 9.45782 h 0.211356 v -9.45782 z m 0.764811,0 v 10.212296 h 0.21084 V 50.151978 Z m 0.764294,0 v 10.340971 h 0.21084 V 50.151978 Z m 0.764295,0 v 9.522416 h 0.210839 v -9.522416 z m 0.764294,0 v 8.762256 h 0.211357 v -8.762256 z m 0.764811,0 v 7.984525 h 0.21084 v -7.984525 z m 0.764295,0 v 7.218681 h 0.21084 v -7.218681 z m 0.764294,0 v 6.464721 h 0.211357 v -6.464721 z m 0.764811,0 v 5.681307 h 0.21084 v -5.681307 z m 0.764295,0 v 4.944401 h 0.21084 v -4.944401 z m 0.764294,0 v 4.178556 h 0.21084 v -4.178556 z m 0.764295,0 v 3.407027 h 0.211356 v -3.407027 z m 0.764811,0 v 2.623612 h 0.21084 v -2.623612 z m 0.764294,0 v 1.898592 h 0.21084 v -1.898592 z m 0.764295,0 v 1.140499 h 0.21084 v -1.140499 z" />
      <path
         id="path10929"
         style="color:#000000;display:inline;fill:#c49454;fill-opacity:1;stroke:none;stroke-width:0.0095878;stroke-dasharray:none;stroke-opacity:1"
         d="M 34.328472,60.443054 V 50.151692 h -0.21084 v 10.291362 z m -0.764294,-0.01705 V 50.151692 h -0.21084 v 10.274309 z m 1.529105,-0.751892 v -9.522417 h -0.210839 v 9.522417 z m -2.2934,-0.06408 v -9.458338 h -0.210839 v 9.458338 z m -0.764294,-0.690397 v -8.767941 h -0.211357 v 8.767941 z m 3.821989,-0.0057 v -8.762256 h -0.21084 v 8.762256 z m 0.764294,-0.777213 v -7.985043 h -0.21084 v 7.985043 z m -5.351094,-0.0584 v -7.926648 h -0.21084 v 7.926648 z m 6.115905,-0.70745 v -7.219198 h -0.211356 v 7.219198 z m -6.8802,-0.01189 V 50.15167 h -0.21084 v 7.207312 z m 7.644495,-0.74259 V 50.15167 h -0.21084 v 6.464722 z m -8.408789,-0.03514 V 50.15167 h -0.21084 v 6.429582 z m 9.173083,-0.748275 V 50.15167 h -0.210839 v 5.681307 z m -9.937378,-0.02325 v -5.658053 h -0.211356 v 5.658053 z M 39.679567,55.09661 v -4.944918 h -0.21084 V 55.09661 Z M 28.213083,55.02065 v -4.868954 h -0.21084 v 4.868954 z m 12.231295,-0.689881 v -4.179073 h -0.21084 v 4.179073 z m -12.995589,-0.03514 v -4.143934 h -0.21084 v 4.143934 z M 41.208672,53.55872 V 50.151692 H 40.997833 V 53.55872 Z M 26.684494,53.50032 V 50.151687 H 26.473138 V 53.50032 Z M 41.972967,52.7753 v -2.623613 h -0.21084 V 52.7753 Z M 25.919683,52.73448 v -2.582788 h -0.21084 v 2.582788 z m 16.818095,-0.684195 v -1.898593 h -0.211357 v 1.898593 z m -17.582389,-0.0584 v -1.840198 h -0.21084 v 1.840198 z m 18.346684,-0.699182 v -1.141016 h -0.21084 v 1.141016 z M 24.391094,51.226043 V 50.15169 h -0.21084 v 1.074353 z"
         transform="rotate(180,33.840996,33.871175)" />
      <path
         id="path11039"
         style="color:#000000;display:inline;fill:#c49454;fill-opacity:1;stroke-width:0.480831;-inkscape-stroke:none"
         d="m 43.501761,51.051355 h -0.21084 v 0.241329 h 0.21084 z m -0.764295,0 h -0.21084 v 0.998905 h 0.21084 z m -0.764294,0 h -0.21084 v 1.723925 h 0.21084 z m -0.764295,0 h -0.211356 v 2.50734 h 0.211356 z m -0.764811,0 h -0.21084 v 3.279386 h 0.21084 z m -0.764294,0 h -0.21084 v 4.045231 h 0.21084 z m -0.764295,0 h -0.210839 v 4.78162 h 0.210839 z m -0.764811,0 h -0.21084 v 5.565035 h 0.21084 z m -0.764294,0 h -0.21084 v 6.31951 h 0.21084 z m -0.764295,0 h -0.21084 v 7.085355 h 0.21084 z m -0.764294,0 h -0.211357 v 7.863086 h 0.211357 z m -0.764811,0 h -0.21084 v 8.622729 h 0.21084 z m -0.764295,0 h -0.21084 v 9.441284 h 0.21084 z m -0.764294,0 h -0.21084 v 9.312609 h 0.21084 z m -0.764295,0 h -0.211356 v 8.55865 h 0.211356 z m -0.764811,0 h -0.21084 v 7.769551 h 0.21084 z m -0.764294,0 h -0.21084 v 7.026961 h 0.21084 z m -0.764295,0 h -0.211356 v 6.307625 h 0.211356 z m -0.764811,0 h -0.21084 v 5.529895 h 0.21084 z m -0.764294,0 h -0.21084 v 4.758365 h 0.21084 z m -0.764295,0 h -0.21084 v 3.969266 h 0.21084 z m -0.764294,0 h -0.211357 v 3.244246 h 0.211357 z m -0.764811,0 h -0.21084 v 2.448946 h 0.21084 z m -0.764295,0 h -0.21084 v 1.683101 h 0.21084 z m -0.764294,0 h -0.21084 v 0.940511 h 0.21084 z m -0.764812,0 h -0.210839 v 0.174666 h 0.210839 z"
         transform="rotate(-90,33.840995,33.89598)" />
      <path
         id="path11093"
         style="color:#000000;display:inline;fill:#c49454;fill-opacity:1;stroke:none;stroke-width:0.480831;stroke-opacity:1;-inkscape-stroke:none"
         d="m 24.180231,51.226128 h 0.21084 v -0.227893 h -0.21084 z m 0.764295,0.765845 h 0.21084 v -0.993738 h -0.21084 z m 0.764294,0.742591 h 0.21084 v -1.736329 h -0.21084 z m 0.764811,0.765844 h 0.21084 v -2.502173 h -0.21084 z m 0.764295,0.795301 h 0.21084 v -3.297474 h -0.21084 z m 0.764294,0.724503 h 0.21084 v -4.021977 h -0.21084 z m 0.764295,0.789616 h 0.211356 v -4.811593 h -0.211356 z m 0.764811,0.771529 h 0.21084 v -5.583122 h -0.21084 z m 0.764294,0.77773 h 0.21084 v -6.360852 h -0.21084 z m 0.764295,0.71882 h 0.21084 v -7.079672 h -0.21084 z m 0.764294,0.841809 h 0.211357 v -7.921481 h -0.211357 z m 0.764811,0.690397 h 0.21084 v -8.611878 h -0.21084 z m 0.764295,0.815971 h 0.21084 v -9.427849 h -0.21084 z m 0.764294,0.01705 h 0.211357 v -9.444902 h -0.211357 z m 0.764811,-0.768945 h 0.21084 v -8.675957 h -0.21084 z m 0.764295,-0.760161 h 0.21084 v -7.915796 h -0.21084 z m 0.764294,-0.777213 h 0.21084 v -7.138583 h -0.21084 z m 0.764295,-0.765845 h 0.211356 v -6.372738 h -0.211356 z m 0.764811,-0.754476 h 0.21084 v -5.618262 h -0.21084 z m 0.764294,-0.783415 h 0.21084 v -4.834847 h -0.21084 z m 0.764295,-0.736905 h 0.21084 v -4.097942 h -0.21084 z m 0.764811,-0.765845 h 0.21084 v -3.332097 h -0.21084 z M 40.997809,53.5588 h 0.21084 v -2.560568 h -0.21084 z m 0.764295,-0.783415 h 0.21084 v -1.777153 h -0.21084 z m 0.764294,-0.72502 h 0.211357 v -1.052133 h -0.211357 z m 0.764812,-0.758094 h 0.210839 V 50.998235 H 43.29121 Z"
         transform="rotate(90,33.842693,33.897674)" />
    </g>
    <rect
       style="fill:none;stroke:#2f6474;stroke-width:0.610243;stroke-dasharray:none;stroke-dashoffset:0;stroke-opacity:1"
       id="rect2002"
       width="47.594265"
       height="47.594265"
       x="-71.691978"
       y="-23.797144"
       transform="matrix(-0.70710907,-0.70710449,0.70710883,-0.70710473,0,0)" />
    <rect
       style="fill:none;stroke:#2f6474;stroke-width:0.488195;stroke-dasharray:none;stroke-dashoffset:0;stroke-opacity:1"
       id="rect2002-7"
       width="38.075413"
       height="38.075413"
       x="-66.932549"
       y="-19.037716"
       transform="matrix(-0.70710909,-0.70710449,0.70710883,-0.70710473,0,0)" />
    <rect
       style="fill:none;stroke:#2f6474;stroke-width:0.428374;stroke-dasharray:none;stroke-dashoffset:0;stroke-opacity:1"
       id="rect2002-0"
       width="34.290688"
       height="32.506115"
       x="-51.012321"
       y="-50.119823"
       transform="matrix(-1,3.0834138e-6,3.0732174e-6,-1,0,0)" />
    <rect
       style="display:inline;fill:none;stroke:#2f6474;stroke-width:0.488195;stroke-dasharray:none;stroke-dashoffset:0;stroke-opacity:1"
       id="rect2798"
       width="4.7165408"
       height="4.7491064"
       x="-28.84915"
       y="-23.753431"
       transform="matrix(-0.70710449,0.70710907,-0.70710473,-0.70710883,0.045503,67.757723)"
       ry="0" />
    <rect
       style="display:inline;fill:none;stroke:#2f6474;stroke-width:0.488195;stroke-dasharray:none;stroke-dashoffset:0;stroke-opacity:1"
       id="rect2800"
       width="4.7535825"
       height="4.776896"
       x="-71.690201"
       y="19.043184"
       transform="matrix(-0.70710449,0.70710907,-0.70710473,-0.70710883,0.045503,67.757723)"
       ry="0" />
    <rect
       style="display:inline;fill:none;stroke:#2f6474;stroke-width:0.488195;stroke-dasharray:none;stroke-dashoffset:0;stroke-opacity:1"
       id="rect2002-7-0"
       width="4.7165408"
       height="4.7491064"
       x="-28.84915"
       y="-23.753431"
       transform="matrix(-0.70710907,-0.70710449,0.70710883,-0.70710473,0,0)"
       ry="0" />
    <rect
       style="display:inline;fill:none;stroke:#2f6474;stroke-width:0.488195;stroke-dasharray:none;stroke-dashoffset:0;stroke-opacity:1"
       id="rect2002-7-0-9"
       width="4.7535825"
       height="4.776896"
       x="-71.690201"
       y="19.043184"
       transform="matrix(-0.70710907,-0.70710449,0.70710883,-0.70710473,0,0)"
       ry="0" />
    <text
       xml:space="preserve"
       transform="matrix(0.26458333,0,0,0.26458333,2.1786269e-4,4.2222232)"
       id="text2859"
       style="font-style:normal;font-variant:normal;font-weight:normal;font-stretch:normal;font-size:96px;font-family:'Calamity Jane NF';-inkscape-font-specification:'Calamity Jane NF, @wght=700';font-variant-ligatures:normal;font-variant-caps:normal;font-variant-numeric:normal;font-variant-east-asian:normal;font-variation-settings:'wght' 700;text-align:center;direction:ltr;white-space:pre;shape-inside:url(#rect2861);display:inline;opacity:1;fill:none;fill-opacity:1;stroke:#f5cb5c;stroke-width:6.04724;stroke-dasharray:none;stroke-dashoffset:0;stroke-opacity:1;paint-order:normal"
       x="-1.0197982e-07"
       y="0"><tspan
         x="87.583954"
         y="145.834"
         id="tspan19162">D</tspan></text>
    <g
       id="g16255"
       style="display:none">
      <path
         id="path16247"
         style="color:#000000;display:inline;fill:#f5cb5c;fill-opacity:1;stroke-width:0.480831;-inkscape-stroke:none"
         d="m 24.179919,50.151978 v 1.073836 h 0.21084 v -1.073836 z m 0.764812,0 v 1.840197 h 0.21084 v -1.840197 z m 0.764294,0 v 2.582271 h 0.21084 v -2.582271 z m 0.764295,0 v 3.348116 h 0.210839 v -3.348116 z m 0.764294,0 v 4.143416 h 0.211357 v -4.143416 z m 0.764811,0 v 4.868436 h 0.21084 v -4.868436 z m 0.764295,0 v 5.657535 h 0.210839 v -5.657535 z m 0.764294,0 v 6.429581 h 0.21084 v -6.429581 z m 0.764811,0 v 7.206795 h 0.21084 v -7.206795 z m 0.764295,0 v 7.926131 h 0.21084 v -7.926131 z m 0.764294,0 v 8.668721 h 0.21084 v -8.668721 z m 0.764295,0 v 9.45782 h 0.211356 v -9.45782 z m 0.764811,0 v 10.212296 h 0.21084 V 50.151978 Z m 0.764294,0 v 10.340971 h 0.21084 V 50.151978 Z m 0.764295,0 v 9.522416 h 0.210839 v -9.522416 z m 0.764294,0 v 8.762256 h 0.211357 v -8.762256 z m 0.764811,0 v 7.984525 h 0.21084 v -7.984525 z m 0.764295,0 v 7.218681 h 0.21084 v -7.218681 z m 0.764294,0 v 6.464721 h 0.211357 v -6.464721 z m 0.764811,0 v 5.681307 h 0.21084 v -5.681307 z m 0.764295,0 v 4.944401 h 0.21084 v -4.944401 z m 0.764294,0 v 4.178556 h 0.21084 v -4.178556 z m 0.764295,0 v 3.407027 h 0.211356 v -3.407027 z m 0.764811,0 v 2.623612 h 0.21084 v -2.623612 z m 0.764294,0 v 1.898592 h 0.21084 v -1.898592 z m 0.764295,0 v 1.140499 h 0.21084 v -1.140499 z" />
      <path
         id="path16249"
         style="color:#000000;display:inline;fill:#f5cb5c;fill-opacity:1;stroke:none;stroke-width:0.0095878;stroke-dasharray:none;stroke-opacity:1"
         d="M 34.328472,60.443054 V 50.151692 h -0.21084 v 10.291362 z m -0.764294,-0.01705 V 50.151692 h -0.21084 v 10.274309 z m 1.529105,-0.751892 v -9.522417 h -0.210839 v 9.522417 z m -2.2934,-0.06408 v -9.458338 h -0.210839 v 9.458338 z m -0.764294,-0.690397 v -8.767941 h -0.211357 v 8.767941 z m 3.821989,-0.0057 v -8.762256 h -0.21084 v 8.762256 z m 0.764294,-0.777213 v -7.985043 h -0.21084 v 7.985043 z m -5.351094,-0.0584 v -7.926648 h -0.21084 v 7.926648 z m 6.115905,-0.70745 v -7.219198 h -0.211356 v 7.219198 z m -6.8802,-0.01189 V 50.15167 h -0.21084 v 7.207312 z m 7.644495,-0.74259 V 50.15167 h -0.21084 v 6.464722 z m -8.408789,-0.03514 V 50.15167 h -0.21084 v 6.429582 z m 9.173083,-0.748275 V 50.15167 h -0.210839 v 5.681307 z m -9.937378,-0.02325 v -5.658053 h -0.211356 v 5.658053 z M 39.679567,55.09661 v -4.944918 h -0.21084 V 55.09661 Z M 28.213083,55.02065 v -4.868954 h -0.21084 v 4.868954 z m 12.231295,-0.689881 v -4.179073 h -0.21084 v 4.179073 z m -12.995589,-0.03514 v -4.143934 h -0.21084 v 4.143934 z M 41.208672,53.55872 V 50.151692 H 40.997833 V 53.55872 Z M 26.684494,53.50032 V 50.151687 H 26.473138 V 53.50032 Z M 41.972967,52.7753 v -2.623613 h -0.21084 V 52.7753 Z M 25.919683,52.73448 v -2.582788 h -0.21084 v 2.582788 z m 16.818095,-0.684195 v -1.898593 h -0.211357 v 1.898593 z m -17.582389,-0.0584 v -1.840198 h -0.21084 v 1.840198 z m 18.346684,-0.699182 v -1.141016 h -0.21084 v 1.141016 z M 24.391094,51.226043 V 50.15169 h -0.21084 v 1.074353 z"
         transform="rotate(180,33.840996,33.871175)" />
      <path
         id="path16251"
         style="color:#000000;display:inline;fill:#f5cb5c;fill-opacity:1;stroke-width:0.480831;-inkscape-stroke:none"
         d="m 43.501761,51.051355 h -0.21084 v 0.241329 h 0.21084 z m -0.764295,0 h -0.21084 v 0.998905 h 0.21084 z m -0.764294,0 h -0.21084 v 1.723925 h 0.21084 z m -0.764295,0 h -0.211356 v 2.50734 h 0.211356 z m -0.764811,0 h -0.21084 v 3.279386 h 0.21084 z m -0.764294,0 h -0.21084 v 4.045231 h 0.21084 z m -0.764295,0 h -0.210839 v 4.78162 h 0.210839 z m -0.764811,0 h -0.21084 v 5.565035 h 0.21084 z m -0.764294,0 h -0.21084 v 6.31951 h 0.21084 z m -0.764295,0 h -0.21084 v 7.085355 h 0.21084 z m -0.764294,0 h -0.211357 v 7.863086 h 0.211357 z m -0.764811,0 h -0.21084 v 8.622729 h 0.21084 z m -0.764295,0 h -0.21084 v 9.441284 h 0.21084 z m -0.764294,0 h -0.21084 v 9.312609 h 0.21084 z m -0.764295,0 h -0.211356 v 8.55865 h 0.211356 z m -0.764811,0 h -0.21084 v 7.769551 h 0.21084 z m -0.764294,0 h -0.21084 v 7.026961 h 0.21084 z m -0.764295,0 h -0.211356 v 6.307625 h 0.211356 z m -0.764811,0 h -0.21084 v 5.529895 h 0.21084 z m -0.764294,0 h -0.21084 v 4.758365 h 0.21084 z m -0.764295,0 h -0.21084 v 3.969266 h 0.21084 z m -0.764294,0 h -0.211357 v 3.244246 h 0.211357 z m -0.764811,0 h -0.21084 v 2.448946 h 0.21084 z m -0.764295,0 h -0.21084 v 1.683101 h 0.21084 z m -0.764294,0 h -0.21084 v 0.940511 h 0.21084 z m -0.764812,0 h -0.210839 v 0.174666 h 0.210839 z"
         transform="rotate(-90,33.840995,33.89598)" />
      <path
         id="path16253"
         style="color:#000000;display:inline;fill:#f5cb5c;fill-opacity:1;stroke-width:0.480831;-inkscape-stroke:none"
         d="m 24.180231,51.226128 h 0.21084 v -0.227893 h -0.21084 z m 0.764295,0.765845 h 0.21084 v -0.993738 h -0.21084 z m 0.764294,0.742591 h 0.21084 v -1.736329 h -0.21084 z m 0.764811,0.765844 h 0.21084 v -2.502173 h -0.21084 z m 0.764295,0.795301 h 0.21084 v -3.297474 h -0.21084 z m 0.764294,0.724503 h 0.21084 v -4.021977 h -0.21084 z m 0.764295,0.789616 h 0.211356 v -4.811593 h -0.211356 z m 0.764811,0.771529 h 0.21084 v -5.583122 h -0.21084 z m 0.764294,0.77773 h 0.21084 v -6.360852 h -0.21084 z m 0.764295,0.71882 h 0.21084 v -7.079672 h -0.21084 z m 0.764294,0.841809 h 0.211357 v -7.921481 h -0.211357 z m 0.764811,0.690397 h 0.21084 v -8.611878 h -0.21084 z m 0.764295,0.815971 h 0.21084 v -9.427849 h -0.21084 z m 0.764294,0.01705 h 0.211357 v -9.444902 h -0.211357 z m 0.764811,-0.768945 h 0.21084 v -8.675957 h -0.21084 z m 0.764295,-0.760161 h 0.21084 v -7.915796 h -0.21084 z m 0.764294,-0.777213 h 0.21084 v -7.138583 h -0.21084 z m 0.764295,-0.765845 h 0.211356 v -6.372738 h -0.211356 z m 0.764811,-0.754476 h 0.21084 v -5.618262 h -0.21084 z m 0.764294,-0.783415 h 0.21084 v -4.834847 h -0.21084 z m 0.764295,-0.736905 h 0.21084 v -4.097942 h -0.21084 z m 0.764811,-0.765845 h 0.21084 v -3.332097 h -0.21084 z M 40.997809,53.5588 h 0.21084 v -2.560568 h -0.21084 z m 0.764295,-0.783415 h 0.21084 v -1.777153 h -0.21084 z m 0.764294,-0.72502 h 0.211357 v -1.052133 h -0.211357 z m 0.764812,-0.758094 h 0.210839 V 50.998235 H 43.29121 Z"
         transform="rotate(90,33.842693,33.897674)" />
    </g>
  </g>
</svg>
