<svg xmlns="http://www.w3.org/2000/svg" width="1em" height="1em" viewBox="0 0 128 128">
	<defs>
		<linearGradient id="deviconMaya0" x1="100.777" x2="86.576" y1="85.094" y2="91.058" gradientUnits="userSpaceOnUse">
			<stop offset=".09" stop-color="#1a5964" />
			<stop offset=".3" stop-color="#137078" />
			<stop offset=".5" stop-color="#0e8085" />
			<stop offset=".66" stop-color="#0c858a" />
			<stop offset="1" stop-color="#0a8b8f" />
		</linearGradient>
		<linearGradient id="deviconMaya1" x1="99.581" x2="130.166" y1="56.123" y2="75.523" gradientUnits="userSpaceOnUse">
			<stop offset="0" stop-color="#079ea0" />
			<stop offset=".43" stop-color="#14878e" />
			<stop offset="1" stop-color="#256a77" />
		</linearGradient>
		<linearGradient id="deviconMaya2" x1="112" x2="112" y1="16.835" y2="120.497" gradientUnits="userSpaceOnUse">
			<stop offset="0" stop-color="#b4b4b4" />
			<stop offset=".8" stop-color="#03abab" />
			<stop offset="1" stop-color="#137980" />
		</linearGradient>
		<linearGradient id="deviconMaya3" x1="59.349" x2="135.485" y1="57.417" y2="42.575" gradientUnits="userSpaceOnUse">
			<stop offset="0" stop-color="#0f5d64" />
			<stop offset=".1" stop-color="#097a7e" />
			<stop offset=".23" stop-color="#049395" />
			<stop offset=".34" stop-color="#01a3a3" />
			<stop offset=".43" stop-color="#00a8a8" />
			<stop offset="1" stop-color="#4ebcc1" />
		</linearGradient>
		<linearGradient id="deviconMaya4" x1="-10.003" x2="26.772" y1="72.033" y2="50.748" gradientUnits="userSpaceOnUse">
			<stop offset="0" stop-color="#00a9a9" />
			<stop offset=".65" stop-color="#049496" />
			<stop offset="1" stop-color="#088286" />
		</linearGradient>
		<linearGradient id="deviconMaya5" x1="2.06" x2="32.014" y1="91.643" y2="89.985" gradientUnits="userSpaceOnUse">
			<stop offset="0" stop-color="#20626e" />
			<stop offset="1" stop-color="#069d9f" />
		</linearGradient>
		<linearGradient id="deviconMaya6" x1="41.036" x2="36.336" y1="5.266" y2="101.578" gradientUnits="userSpaceOnUse">
			<stop offset="0" stop-color="#99cbd2" />
			<stop offset=".9" stop-color="#498f93" />
			<stop offset="1" stop-color="#2e7b7d" />
		</linearGradient>
	</defs>
	<path fill="url(#deviconMaya0)" d="M98 121h3V49l-6 9v56z" />
	<path fill="url(#deviconMaya1)" d="M98 121V51l23-44h5v54l-22 60z" />
	<path fill="url(#deviconMaya2)" d="M126 121H98c2.9-5.7 14.1-29.2 19-48c8.5-33.1 9-58 9-58z" />
	<path fill="url(#deviconMaya3)" d="M126 7H89L63 69l11 30h1c.4 0 1-.3 2-2c4.1-7.6 49-90 49-90" />
	<path fill="url(#deviconMaya4)" d="m2 121.7l3-.7l27-49V56L5 9L2 7.4z" />
	<path fill="url(#deviconMaya5)" d="M32 59.1c-2.3 6.9-7.9 23.6-13.6 34.3C8.2 113 2 121.7 2 121.7s23.7 2 30-5.7z" />
	<path fill="url(#deviconMaya6)" d="M52 97c1 1.8 1.6 2 2 2h21c.2-.2.4-.4.4-.7c-.1-.4-.2-.9-.4-1.3L38 4L2 7.4S47.7 89.2 52 97" />
</svg>