<?xml version="1.0" encoding="UTF-8" standalone="no"?>
<svg
   viewBox="0 0 50 50"
   width="50px"
   height="50px"
   version="1.1"
   id="svg4"
   sodipodi:docname="postgresql.svg"
   inkscape:version="1.2.2 (732a01da63, 2022-12-09)"
   xmlns:inkscape="http://www.inkscape.org/namespaces/inkscape"
   xmlns:sodipodi="http://sodipodi.sourceforge.net/DTD/sodipodi-0.dtd"
   xmlns="http://www.w3.org/2000/svg"
   xmlns:svg="http://www.w3.org/2000/svg">
  <defs
     id="defs8" />
  <sodipodi:namedview
     id="namedview6"
     pagecolor="#ffffff"
     bordercolor="#000000"
     borderopacity="0.25"
     inkscape:showpageshadow="2"
     inkscape:pageopacity="0.0"
     inkscape:pagecheckerboard="0"
     inkscape:deskcolor="#d1d1d1"
     showgrid="false"
     inkscape:zoom="20.04"
     inkscape:cx="18.637725"
     inkscape:cy="13.423154"
     inkscape:window-width="1920"
     inkscape:window-height="1009"
     inkscape:window-x="-8"
     inkscape:window-y="2"
     inkscape:window-maximized="1"
     inkscape:current-layer="svg4" />
  <path
     d="M 34.902344,4 C 32.863281,4 31.097656,4.550781 29.875,5.09375 28.675781,4.691406 26.6875,4.003906 24.300781,4.5 22.910156,4.742188 21.632813,5.316406 20.460938,6.195313 18.53125,5.265625 16.515625,4.695313 14.402344,4.601563 13.101563,4.5 7.800781,5.101563 5.898438,7.898438 5.199219,9 4.5,10.398438 4.199219,12.097656 c -0.300781,1.5 -0.300781,3.203125 0.199219,6.703125 0.300781,2.398438 0.703125,4 1.601562,7.296875 C 6.101563,26.398438 6.601563,28 8.101563,32.402344 8.398438,33.199219 9,34.699219 10.199219,36.097656 c 0.800781,1 1.601562,1.601563 2.601562,1.601563 1.300782,0 2.199219,-0.898438 3,-1.898438 0.05859,-0.06641 0.121094,-0.140625 0.179688,-0.207031 -0.07422,0.117188 -0.140625,0.246094 -0.179688,0.40625 -0.199218,1 1,1.800781 2,2.199219 0.800782,0.398437 1.699219,0.5 2.398438,0.5 0.898437,0 1.601562,-0.199219 2,-0.296875 0.34375,-0.117188 1.085937,-0.4375 1.878906,-0.964844 0.03516,2.554688 0.05859,5.570313 0.121094,6.261719 0.300781,2.601562 1,4.398437 2.300781,5.398437 C 27.5,49.898438 29.300781,50 29.402344,50 31.199219,50 34,48.800781 35.199219,46.902344 35.800781,46 36,45.199219 36.199219,44.097656 36.398438,43.5 36.597656,40 36.699219,39.300781 c 0.136719,-1.105468 0.242187,-2.195312 0.347656,-3.253906 0.660156,0.171875 1.472656,0.355469 2.355469,0.355469 1.597656,0 3.699219,-1.101563 4.097656,-1.304688 0.800781,-0.597656 2.398438,-1.996093 1.699219,-3.195312 -0.398438,-0.703125 -1,-0.703125 -2.5,-0.5 0,0 -2.398438,0.296875 -2.601563,0.195312 C 39.953125,31.542969 39.730469,31.402344 39.480469,31.21875 40,30.414063 40.460938,29.617188 41,28.902344 c 1.199219,-2.300781 1.902344,-4.101563 2.402344,-5.5 0.898437,-2.5 1.398437,-4.503906 1.695312,-5.902344 0.703125,-3 0.902344,-4.398437 0.5,-6 C 44.800781,8.699219 41.898438,6.300781 40.699219,5.601563 39.898438,5.199219 37.902344,4 34.902344,4 Z m 0,2 C 37.402344,6 39.101563,7 40,7.398438 41.101563,8 43.601563,10 43.800781,11.898438 43.902344,13 44,14.101563 43.300781,17 42.902344,18.398438 42.5,20.199219 41.597656,22.699219 c -0.5,1.398437 -1.097656,3.101562 -2.296875,5.203125 -0.03125,0.05078 -0.06641,0.105469 -0.09766,0.160156 0.117188,-0.421875 0.199219,-0.761719 0.199219,-0.761719 0.199219,-1 0.199219,-1.800781 0.09766,-3 -0.101562,-0.601562 -0.199219,-2.101562 -0.199219,-2.703125 0,-0.296875 0.296875,-3.398437 0.398438,-4.5 0.101562,-1.796875 -1,-4 -1.296875,-4.398437 C 36.902344,10.398438 36.101563,9.101563 34.5,7.800781 34.101563,7.460938 33.417969,6.894531 32.488281,6.324219 33.222656,6.144531 34.035156,6 34.902344,6 Z m -8.835938,0.410156 c 1.304688,0.03125 2.410157,0.390625 3.234375,0.691407 2.101563,0.699218 3.398438,1.796875 4,2.296875 1.300782,1.101562 2,2.203125 3.5,4.503906 0.109375,0.21875 0.394532,0.683594 0.621094,1.332031 -2.046875,-0.1875 -3.40625,0.53125 -4.222656,1.265625 -1.199219,1 -1.101563,2.5 -1,3.597656 0,0.800782 0.203125,1.804688 1.703125,5.203125 0.597656,1.5 1.195312,3.097657 1.796875,4.199219 0.3125,0.621094 0.695312,1.191406 1.105469,1.699219 -0.238282,0.121094 -0.480469,0.277344 -0.707032,0.5 -0.597656,0.699219 -0.699218,1.402344 -0.898437,2.703125 -0.199219,1 -0.398438,3.097656 -0.5,4.796875 0,0.699219 -0.296875,4.101562 -0.398438,4.601562 -0.300781,1 -0.402343,1.5 -0.800781,2.101563 -0.699219,1.097656 -2.898437,2 -4.199219,1.898437 -0.398437,0 -1,0 -1.5,-0.398437 -1.101562,-0.800781 -1.5,-2.601563 -1.601562,-4 -0.101563,-1 0,-8.203125 -0.199219,-9.804688 C 25.898438,33.199219 25.800781,32.199219 25,31.5 c -0.335937,-0.28125 -1.03125,-0.425781 -1.6875,-0.523437 0.0078,-0.335938 0.02734,-0.671875 0.08984,-0.976563 0.09766,-0.601562 0.296875,-0.902344 0.5,-1.402344 0.09766,-0.296875 0.296875,-0.695312 0.5,-1.195312 0.898437,-2.800781 0.695312,-6.503906 0.195312,-8.804688 -0.09766,-0.199218 -0.5,-1.796875 -1.898437,-2.695312 C 21.199219,15 19.597656,15.5 18.699219,15.800781 18.328125,15.902344 17.960938,16.0625 17.59375,16.25 17.65625,15.832031 17.710938,15.410156 17.800781,15 18.199219,13 18.601563,11.300781 19.902344,9.601563 21.300781,7.898438 22.898438,6.800781 24.699219,6.5 25.175781,6.425781 25.632813,6.398438 26.066406,6.410156 Z M 13.71875,6.585938 c 0.234375,-0.00391 0.433594,0 0.582031,0.015625 1.5625,0.082031 3.058594,0.449218 4.542969,1.074218 -0.183594,0.203125 -0.367187,0.40625 -0.542969,0.625 -1.699218,2 -2.101562,4.097657 -2.5,6.199219 -0.5,2.5 -0.601562,5.097656 -0.203125,7.699219 l -0.195312,1.898437 C 15.300781,25.097656 15.097656,27 16.199219,29 c 0.386719,0.664063 0.8125,1.226563 1.28125,1.707031 -1.015625,1.34375 -2.09375,2.613282 -3.179688,3.792969 -0.601562,0.699219 -1.101562,1.199219 -1.5,1.199219 -0.101562,0 -0.5,-0.199219 -1.101562,-0.898438 -1.101563,-1.199218 -1.5,-2.5 -1.699219,-3 C 8.800781,28.199219 8.101563,25.898438 8,25.597656 7.199219,22.398438 6.800781,20.800781 6.398438,18.5 c -0.5,-3.199219 -0.5,-4.800781 -0.199219,-6.097656 C 6.5,11 7,9.898438 7.5,9.101563 8.726563,7.175781 12.09375,6.628906 13.71875,6.585938 Z M 36.664063,17.125 c 0.320312,0 0.667968,0.03906 1.035156,0.117188 -0.01172,0.933593 -0.398438,3.863281 -0.398438,4.257812 0,0.800781 0.199219,2.398438 0.199219,3 0.101563,1.101563 0.101563,1.699219 0,2.5 0,0 -0.148437,0.714844 -0.300781,1.222656 C 36.734375,27.171875 36.21875,25.917969 35.597656,24.5 34.097656,21.101563 34,20.402344 34,19.902344 c 0,-0.703125 0,-1.601563 0.597656,-2 0.5625,-0.5 1.246094,-0.769531 2.066407,-0.777344 z m -15.523438,0.292969 c 0.199219,0.02344 0.382813,0.08203 0.558594,0.179687 C 22.5,18 22.699219,19 22.699219,19 c 0.5,2.199219 0.699219,5.5 -0.101563,7.699219 -0.09766,0.398437 -0.296875,0.699219 -0.398437,1 -0.199219,0.5 -0.398438,1 -0.601563,1.898437 -0.05078,0.371094 -0.07422,0.738282 -0.08594,1.105469 C 20.820313,30.558594 20.167969,30.3125 19.699219,30 c -0.800781,-0.398437 -1.398438,-1.101562 -1.796875,-1.902344 -0.703125,-1.5 -0.601563,-2.898437 -0.5,-3.695312 l 0.195312,-2.304688 c -0.140625,-1.125 -0.207031,-2.253906 -0.191406,-3.375 0.460938,-0.394531 1.0625,-0.796875 1.894531,-1.023437 0.601563,-0.148438 1.257813,-0.355469 1.839844,-0.28125 z m 14.746094,0.671875 c -0.261719,0.01172 -0.539063,0.05859 -0.6875,0.109375 -0.398438,0.101562 -0.5,0.101562 -0.601563,0.300781 -0.09766,0.199219 0.203125,0.5 0.304688,0.699219 0.09766,0 0.398437,0.300781 0.796875,0.203125 C 36,19.300781 36.199219,19.101563 36.300781,19 c 0.101563,-0.101562 0.5,-0.601562 0.199219,-0.800781 -0.101562,-0.101563 -0.351562,-0.125 -0.613281,-0.109375 z m -14.972656,0.726562 c -0.109375,0.0078 -0.214844,0.03516 -0.316407,0.08594 -0.09766,0 -0.296875,0.09766 -0.398437,0.296875 -0.101563,0.199219 0,0.398437 0.101562,0.5 0.199219,0.300781 0.5,0.601562 1,0.601562 0.101563,0 0.5,0 0.796875,-0.300781 0,0 0.304688,-0.300781 0.304688,-0.597656 C 22.300781,19.199219 22.101563,19.101563 21.800781,19 c -0.226562,-0.07422 -0.5625,-0.207031 -0.886718,-0.183594 z m -1.839844,13.085938 c 0.613281,0.328125 1.351562,0.59375 2.160156,0.777344 -0.214844,0.429687 -0.523437,0.785156 -0.832031,1.019531 -0.703125,0.5 -1.601563,0.800781 -2.5,1 -0.203125,0 -0.300781,0.101562 -0.5,0.101562 -0.484375,0.136719 -0.953125,0.289063 -1.273438,0.621094 0.980469,-1.089844 1.964844,-2.292969 2.945313,-3.519531 z m 19.28125,0.800781 c 0.4375,0.328125 0.867187,0.570313 1.242187,0.699219 0.601563,0.199219 1.101563,0.199219 2.902344,0 -0.300781,0.296875 -1.199219,0.796875 -2.5,1 -0.835937,0.08203 -1.875,-0.117188 -2.71875,-0.359375 0.07813,-0.566406 0.167969,-0.890625 0.316406,-1.042969 0.05469,-0.05078 0.386719,-0.152344 0.757813,-0.296875 z m -15.058594,0.300781 c 0.207031,0.03516 0.371094,0.0625 0.402344,0.09375 C 23.898438,33.300781 24,33.800781 24,34 c 0.01172,0.171875 0.01953,0.605469 0.02734,0.90625 -0.824219,0.964844 -2.148438,1.5 -2.429688,1.59375 -0.398437,0.199219 -1.597656,0.398438 -2.796875,0 1,-0.300781 2,-0.597656 2.796875,-1.199219 0.699219,-0.5 1.300782,-1.296875 1.699219,-2.296875 z"
     id="path2" />
</svg>
